# xmcd CD database file
#
# Track frame offsets:
#	150
#	26992
#	45107
#
# Disc length: 862 seconds
#
# Revision: 2
# Processed by: cddbd v1.5.2PL0 Copyright (c) Steve Scherf et al.
# Submitted via: CDex 1.51
#
DISCID=1a035c03
DTITLE=Gotthard - I'm On My Way
DYEAR=1900
DGENRE=Rock
TTITLE0=I'm On My Way
TTITLE1=Love For Money
TTITLE2=Mountain Mama
EXTD=
EXTT0=
EXTT1=
EXTT2=
PLAYORDER=
